<svg width="600" height="400" viewBox="0 0 600 400" fill="none" xmlns="http://www.w3.org/2000/svg">
  <rect width="600" height="400" rx="28" fill="#071021"/>
  <rect x="56" y="58" width="488" height="284" rx="26" fill="#0D1736" stroke="#5EE7FF" stroke-opacity="0.3" stroke-width="2"/>
  <rect x="92" y="94" width="128" height="94" rx="16" fill="#122756"/>
  <rect x="236" y="94" width="128" height="94" rx="16" fill="#122756"/>
  <rect x="380" y="94" width="128" height="94" rx="16" fill="#122756"/>
  <rect x="92" y="210" width="200" height="96" rx="16" fill="#122756"/>
  <rect x="308" y="210" width="200" height="96" rx="16" fill="#122756"/>
  <path d="M118 164L146 132L174 165L194 144L214 176H100L118 164Z" fill="#5EE7FF" fill-opacity="0.7"/>
  <path d="M262 164L290 132L318 165L338 144L358 176H244L262 164Z" fill="#A855F7" fill-opacity="0.72"/>
  <path d="M406 164L434 132L462 165L482 144L502 176H388L406 164Z" fill="#F472B6" fill-opacity="0.72"/>
  <path d="M126 282L168 240L210 286L238 258L282 298H104L126 282Z" fill="#5EE7FF" fill-opacity="0.62"/>
  <path d="M342 282L384 240L426 286L454 258L498 298H320L342 282Z" fill="#A855F7" fill-opacity="0.62"/>
</svg>
